<mxfile host="app.diagrams.net" agent="Mozilla/5.0 (Windows NT 10.0; Win64; x64) AppleWebKit/537.36 (KHTML, like Gecko) Chrome/131.0.0.0 Safari/537.36" version="26.0.6">
  <diagram id="C5RBs43oDa-KdzZeNtuy" name="Page-1">
    <mxGraphModel dx="1451" dy="1924" grid="1" gridSize="10" guides="1" tooltips="1" connect="1" arrows="1" fold="1" page="1" pageScale="1" pageWidth="827" pageHeight="1169" math="0" shadow="0">
      <root>
        <mxCell id="WIyWlLk6GJQsqaUBKTNV-0" />
        <mxCell id="WIyWlLk6GJQsqaUBKTNV-1" parent="WIyWlLk6GJQsqaUBKTNV-0" />
        <mxCell id="nR5DASD_eiS3a2mbP523-37" style="edgeStyle=orthogonalEdgeStyle;rounded=0;orthogonalLoop=1;jettySize=auto;html=1;entryX=0.5;entryY=0;entryDx=0;entryDy=0;movable=0;resizable=0;rotatable=0;deletable=0;editable=0;locked=1;connectable=0;" edge="1" parent="WIyWlLk6GJQsqaUBKTNV-1" source="nR5DASD_eiS3a2mbP523-0" target="nR5DASD_eiS3a2mbP523-21">
          <mxGeometry relative="1" as="geometry" />
        </mxCell>
        <mxCell id="nR5DASD_eiS3a2mbP523-81" style="edgeStyle=orthogonalEdgeStyle;rounded=0;orthogonalLoop=1;jettySize=auto;html=1;" edge="1" parent="WIyWlLk6GJQsqaUBKTNV-1" source="nR5DASD_eiS3a2mbP523-0">
          <mxGeometry relative="1" as="geometry">
            <mxPoint x="1050" y="-670" as="targetPoint" />
          </mxGeometry>
        </mxCell>
        <mxCell id="nR5DASD_eiS3a2mbP523-0" value="INICIO" style="ellipse;whiteSpace=wrap;html=1;fillColor=#d5e8d4;strokeColor=#82b366;movable=1;resizable=1;rotatable=1;deletable=1;editable=1;locked=0;connectable=1;" vertex="1" parent="WIyWlLk6GJQsqaUBKTNV-1">
          <mxGeometry x="772" y="-760" width="76" height="70" as="geometry" />
        </mxCell>
        <mxCell id="nR5DASD_eiS3a2mbP523-2" value="LogIn Organizador" style="rounded=0;whiteSpace=wrap;html=1;fillColor=#fff2cc;strokeColor=#d6b656;movable=1;resizable=1;rotatable=1;deletable=1;editable=1;locked=0;connectable=1;" vertex="1" parent="WIyWlLk6GJQsqaUBKTNV-1">
          <mxGeometry x="848" y="-635" width="120" height="40" as="geometry" />
        </mxCell>
        <mxCell id="nR5DASD_eiS3a2mbP523-7" value="" style="endArrow=classic;html=1;rounded=0;exitX=0.5;exitY=1;exitDx=0;exitDy=0;entryX=0.5;entryY=0;entryDx=0;entryDy=0;movable=1;resizable=1;rotatable=1;deletable=1;editable=1;locked=0;connectable=1;" edge="1" parent="WIyWlLk6GJQsqaUBKTNV-1" source="nR5DASD_eiS3a2mbP523-2" target="nR5DASD_eiS3a2mbP523-8">
          <mxGeometry width="50" height="50" relative="1" as="geometry">
            <mxPoint x="860" y="-440" as="sourcePoint" />
            <mxPoint x="908" y="-550" as="targetPoint" />
          </mxGeometry>
        </mxCell>
        <mxCell id="nR5DASD_eiS3a2mbP523-8" value="Creacion Del Torneo" style="rounded=0;whiteSpace=wrap;html=1;fillColor=#fff2cc;strokeColor=#d6b656;movable=1;resizable=1;rotatable=1;deletable=1;editable=1;locked=0;connectable=1;" vertex="1" parent="WIyWlLk6GJQsqaUBKTNV-1">
          <mxGeometry x="848" y="-560" width="120" height="40" as="geometry" />
        </mxCell>
        <mxCell id="nR5DASD_eiS3a2mbP523-9" value="Deficion de Jueces" style="rounded=0;whiteSpace=wrap;html=1;fillColor=#fff2cc;strokeColor=#d6b656;movable=1;resizable=1;rotatable=1;deletable=1;editable=1;locked=0;connectable=1;" vertex="1" parent="WIyWlLk6GJQsqaUBKTNV-1">
          <mxGeometry x="848" y="-490" width="120" height="40" as="geometry" />
        </mxCell>
        <mxCell id="nR5DASD_eiS3a2mbP523-10" value="" style="endArrow=classic;html=1;rounded=0;exitX=0.5;exitY=1;exitDx=0;exitDy=0;entryX=0.5;entryY=0;entryDx=0;entryDy=0;movable=1;resizable=1;rotatable=1;deletable=1;editable=1;locked=0;connectable=1;" edge="1" parent="WIyWlLk6GJQsqaUBKTNV-1" source="nR5DASD_eiS3a2mbP523-8" target="nR5DASD_eiS3a2mbP523-9">
          <mxGeometry width="50" height="50" relative="1" as="geometry">
            <mxPoint x="917.5" y="-510" as="sourcePoint" />
            <mxPoint x="917.5" y="-460" as="targetPoint" />
          </mxGeometry>
        </mxCell>
        <mxCell id="nR5DASD_eiS3a2mbP523-11" value="Endpoint de Organizador para definir los jueces" style="text;html=1;align=center;verticalAlign=middle;whiteSpace=wrap;rounded=0;fillColor=#f5f5f5;fontColor=#333333;strokeColor=#666666;movable=1;resizable=1;rotatable=1;deletable=1;editable=1;locked=0;connectable=1;" vertex="1" parent="WIyWlLk6GJQsqaUBKTNV-1">
          <mxGeometry x="984" y="-485" width="160" height="30" as="geometry" />
        </mxCell>
        <mxCell id="nR5DASD_eiS3a2mbP523-12" value="Uso de Endpoint de LogIn para ingreso de organizador" style="text;html=1;align=center;verticalAlign=middle;whiteSpace=wrap;rounded=0;fillColor=#f5f5f5;fontColor=#333333;strokeColor=#666666;movable=1;resizable=1;rotatable=1;deletable=1;editable=1;locked=0;connectable=1;" vertex="1" parent="WIyWlLk6GJQsqaUBKTNV-1">
          <mxGeometry x="984" y="-630" width="160" height="30" as="geometry" />
        </mxCell>
        <mxCell id="nR5DASD_eiS3a2mbP523-16" value="LogIn Jugadores" style="rounded=0;whiteSpace=wrap;html=1;fillColor=#fff2cc;strokeColor=#d6b656;movable=0;resizable=0;rotatable=0;deletable=0;editable=0;locked=1;connectable=0;" vertex="1" parent="WIyWlLk6GJQsqaUBKTNV-1">
          <mxGeometry x="848" y="-330" width="120" height="40" as="geometry" />
        </mxCell>
        <mxCell id="nR5DASD_eiS3a2mbP523-18" value="Uso de Endpoint de LogIn para ingreso de Jugadores" style="text;html=1;align=center;verticalAlign=middle;whiteSpace=wrap;rounded=0;fillColor=#f5f5f5;fontColor=#333333;strokeColor=#666666;movable=0;resizable=0;rotatable=0;deletable=0;editable=0;locked=1;connectable=0;" vertex="1" parent="WIyWlLk6GJQsqaUBKTNV-1">
          <mxGeometry x="994" y="-325" width="160" height="30" as="geometry" />
        </mxCell>
        <mxCell id="nR5DASD_eiS3a2mbP523-19" value="Ruta de ejecucion de Jugo" style="text;html=1;align=left;verticalAlign=middle;whiteSpace=wrap;rounded=0;fillColor=#e1d5e7;strokeColor=#9673a6;movable=0;resizable=0;rotatable=0;deletable=0;editable=0;locked=1;connectable=0;" vertex="1" parent="WIyWlLk6GJQsqaUBKTNV-1">
          <mxGeometry x="864" y="-790" width="120" height="30" as="geometry" />
        </mxCell>
        <mxCell id="nR5DASD_eiS3a2mbP523-20" value="Ruta de ejecucion de Creacion" style="text;html=1;align=left;verticalAlign=middle;whiteSpace=wrap;rounded=0;fillColor=#e1d5e7;strokeColor=#9673a6;" vertex="1" parent="WIyWlLk6GJQsqaUBKTNV-1">
          <mxGeometry x="630" y="-790" width="120" height="30" as="geometry" />
        </mxCell>
        <mxCell id="nR5DASD_eiS3a2mbP523-84" style="edgeStyle=orthogonalEdgeStyle;rounded=0;orthogonalLoop=1;jettySize=auto;html=1;entryX=0;entryY=0.5;entryDx=0;entryDy=0;" edge="1" parent="WIyWlLk6GJQsqaUBKTNV-1" source="nR5DASD_eiS3a2mbP523-21" target="nR5DASD_eiS3a2mbP523-83">
          <mxGeometry relative="1" as="geometry" />
        </mxCell>
        <mxCell id="nR5DASD_eiS3a2mbP523-21" value="LogIn Administrador" style="rounded=0;whiteSpace=wrap;html=1;fillColor=#fff2cc;strokeColor=#d6b656;movable=1;resizable=1;rotatable=1;deletable=1;editable=1;locked=0;connectable=1;" vertex="1" parent="WIyWlLk6GJQsqaUBKTNV-1">
          <mxGeometry x="630" y="-640" width="120" height="340" as="geometry" />
        </mxCell>
        <mxCell id="nR5DASD_eiS3a2mbP523-24" value="CRUD Jugador" style="rounded=0;whiteSpace=wrap;html=1;fillColor=#fff2cc;strokeColor=#d6b656;movable=0;resizable=0;rotatable=0;deletable=0;editable=0;locked=1;connectable=0;" vertex="1" parent="WIyWlLk6GJQsqaUBKTNV-1">
          <mxGeometry x="440" y="-640" width="120" height="40" as="geometry" />
        </mxCell>
        <mxCell id="nR5DASD_eiS3a2mbP523-26" value="CRUD Juez" style="rounded=0;whiteSpace=wrap;html=1;fillColor=#fff2cc;strokeColor=#d6b656;movable=0;resizable=0;rotatable=0;deletable=0;editable=0;locked=1;connectable=0;" vertex="1" parent="WIyWlLk6GJQsqaUBKTNV-1">
          <mxGeometry x="440" y="-560" width="120" height="40" as="geometry" />
        </mxCell>
        <mxCell id="nR5DASD_eiS3a2mbP523-27" value="CRUD Cartas" style="rounded=0;whiteSpace=wrap;html=1;fillColor=#fff2cc;strokeColor=#d6b656;movable=0;resizable=0;rotatable=0;deletable=0;editable=0;locked=1;connectable=0;" vertex="1" parent="WIyWlLk6GJQsqaUBKTNV-1">
          <mxGeometry x="440" y="-480" width="120" height="40" as="geometry" />
        </mxCell>
        <mxCell id="nR5DASD_eiS3a2mbP523-28" value="CRUD Torneos" style="rounded=0;whiteSpace=wrap;html=1;fillColor=#fff2cc;strokeColor=#d6b656;movable=0;resizable=0;rotatable=0;deletable=0;editable=0;locked=1;connectable=0;" vertex="1" parent="WIyWlLk6GJQsqaUBKTNV-1">
          <mxGeometry x="440" y="-400" width="120" height="40" as="geometry" />
        </mxCell>
        <mxCell id="nR5DASD_eiS3a2mbP523-29" value="" style="endArrow=classic;html=1;rounded=0;entryX=1;entryY=0.5;entryDx=0;entryDy=0;movable=0;resizable=0;rotatable=0;deletable=0;editable=0;locked=1;connectable=0;" edge="1" parent="WIyWlLk6GJQsqaUBKTNV-1" target="nR5DASD_eiS3a2mbP523-24">
          <mxGeometry width="50" height="50" relative="1" as="geometry">
            <mxPoint x="630" y="-620" as="sourcePoint" />
            <mxPoint x="680" y="-670" as="targetPoint" />
          </mxGeometry>
        </mxCell>
        <mxCell id="nR5DASD_eiS3a2mbP523-30" value="" style="endArrow=classic;html=1;rounded=0;entryX=1;entryY=0.5;entryDx=0;entryDy=0;movable=0;resizable=0;rotatable=0;deletable=0;editable=0;locked=1;connectable=0;" edge="1" parent="WIyWlLk6GJQsqaUBKTNV-1">
          <mxGeometry width="50" height="50" relative="1" as="geometry">
            <mxPoint x="630" y="-540.5" as="sourcePoint" />
            <mxPoint x="560" y="-540.5" as="targetPoint" />
          </mxGeometry>
        </mxCell>
        <mxCell id="nR5DASD_eiS3a2mbP523-31" value="" style="endArrow=classic;html=1;rounded=0;entryX=1;entryY=0.5;entryDx=0;entryDy=0;movable=0;resizable=0;rotatable=0;deletable=0;editable=0;locked=1;connectable=0;" edge="1" parent="WIyWlLk6GJQsqaUBKTNV-1">
          <mxGeometry width="50" height="50" relative="1" as="geometry">
            <mxPoint x="630" y="-460.5" as="sourcePoint" />
            <mxPoint x="560" y="-460.5" as="targetPoint" />
          </mxGeometry>
        </mxCell>
        <mxCell id="nR5DASD_eiS3a2mbP523-32" value="" style="endArrow=classic;html=1;rounded=0;entryX=1;entryY=0.5;entryDx=0;entryDy=0;movable=0;resizable=0;rotatable=0;deletable=0;editable=0;locked=1;connectable=0;" edge="1" parent="WIyWlLk6GJQsqaUBKTNV-1">
          <mxGeometry width="50" height="50" relative="1" as="geometry">
            <mxPoint x="630" y="-380.5" as="sourcePoint" />
            <mxPoint x="560" y="-380.5" as="targetPoint" />
          </mxGeometry>
        </mxCell>
        <mxCell id="nR5DASD_eiS3a2mbP523-41" value="" style="endArrow=classic;html=1;rounded=0;exitX=0.5;exitY=1;exitDx=0;exitDy=0;" edge="1" parent="WIyWlLk6GJQsqaUBKTNV-1">
          <mxGeometry width="50" height="50" relative="1" as="geometry">
            <mxPoint x="910" y="-290" as="sourcePoint" />
            <mxPoint x="910.5" y="-250" as="targetPoint" />
          </mxGeometry>
        </mxCell>
        <mxCell id="nR5DASD_eiS3a2mbP523-58" value="" style="group;movable=0;resizable=0;rotatable=0;deletable=0;editable=0;locked=1;connectable=0;" vertex="1" connectable="0" parent="WIyWlLk6GJQsqaUBKTNV-1">
          <mxGeometry x="848" y="-240" width="390" height="280" as="geometry" />
        </mxCell>
        <mxCell id="nR5DASD_eiS3a2mbP523-42" value="Ver Series / Cartas" style="rounded=0;whiteSpace=wrap;html=1;fillColor=#fff2cc;strokeColor=#d6b656;" vertex="1" parent="nR5DASD_eiS3a2mbP523-58">
          <mxGeometry width="120" height="40" as="geometry" />
        </mxCell>
        <mxCell id="nR5DASD_eiS3a2mbP523-43" value="Los Jugadores pueden ver todas las cartas y sus respectivas series disponibles" style="text;html=1;align=center;verticalAlign=middle;whiteSpace=wrap;rounded=0;fillColor=#f5f5f5;fontColor=#333333;strokeColor=#666666;" vertex="1" parent="nR5DASD_eiS3a2mbP523-58">
          <mxGeometry x="130" y="5" width="260" height="30" as="geometry" />
        </mxCell>
        <mxCell id="nR5DASD_eiS3a2mbP523-46" value="Ver Torneos" style="rounded=0;whiteSpace=wrap;html=1;fillColor=#fff2cc;strokeColor=#d6b656;" vertex="1" parent="nR5DASD_eiS3a2mbP523-58">
          <mxGeometry y="80" width="120" height="40" as="geometry" />
        </mxCell>
        <mxCell id="nR5DASD_eiS3a2mbP523-47" value="Los Jugadores pueden ver los torneos disponibles" style="text;html=1;align=center;verticalAlign=middle;whiteSpace=wrap;rounded=0;fillColor=#f5f5f5;fontColor=#333333;strokeColor=#666666;" vertex="1" parent="nR5DASD_eiS3a2mbP523-58">
          <mxGeometry x="130" y="85" width="260" height="30" as="geometry" />
        </mxCell>
        <mxCell id="nR5DASD_eiS3a2mbP523-50" value="Inscribirse Torneo" style="rounded=0;whiteSpace=wrap;html=1;fillColor=#fff2cc;strokeColor=#d6b656;" vertex="1" parent="nR5DASD_eiS3a2mbP523-58">
          <mxGeometry y="160" width="120" height="40" as="geometry" />
        </mxCell>
        <mxCell id="nR5DASD_eiS3a2mbP523-51" value="Los Jugadores pueden inscribirse al torneo hasta completar la capacidad maxima" style="text;html=1;align=center;verticalAlign=middle;whiteSpace=wrap;rounded=0;fillColor=#f5f5f5;fontColor=#333333;strokeColor=#666666;" vertex="1" parent="nR5DASD_eiS3a2mbP523-58">
          <mxGeometry x="130" y="165" width="260" height="30" as="geometry" />
        </mxCell>
        <mxCell id="nR5DASD_eiS3a2mbP523-53" value="Inscribirse Torneo" style="rounded=0;whiteSpace=wrap;html=1;fillColor=#fff2cc;strokeColor=#d6b656;" vertex="1" parent="nR5DASD_eiS3a2mbP523-58">
          <mxGeometry y="240" width="120" height="40" as="geometry" />
        </mxCell>
        <mxCell id="nR5DASD_eiS3a2mbP523-54" value="Los Jugadores pueden inscribirse al torneo hasta completar la capacidad maxima" style="text;html=1;align=center;verticalAlign=middle;whiteSpace=wrap;rounded=0;fillColor=#f5f5f5;fontColor=#333333;strokeColor=#666666;" vertex="1" parent="nR5DASD_eiS3a2mbP523-58">
          <mxGeometry x="130" y="245" width="260" height="30" as="geometry" />
        </mxCell>
        <mxCell id="nR5DASD_eiS3a2mbP523-49" value="" style="endArrow=classic;html=1;rounded=0;exitX=0.5;exitY=1;exitDx=0;exitDy=0;" edge="1" parent="nR5DASD_eiS3a2mbP523-58" source="nR5DASD_eiS3a2mbP523-42" target="nR5DASD_eiS3a2mbP523-46">
          <mxGeometry width="50" height="50" relative="1" as="geometry">
            <mxPoint x="62" y="75" as="sourcePoint" />
            <mxPoint x="112" y="25" as="targetPoint" />
          </mxGeometry>
        </mxCell>
        <mxCell id="nR5DASD_eiS3a2mbP523-52" value="" style="endArrow=classic;html=1;rounded=0;exitX=0.5;exitY=1;exitDx=0;exitDy=0;" edge="1" parent="nR5DASD_eiS3a2mbP523-58" target="nR5DASD_eiS3a2mbP523-50" source="nR5DASD_eiS3a2mbP523-46">
          <mxGeometry width="50" height="50" relative="1" as="geometry">
            <mxPoint x="60" y="150" as="sourcePoint" />
            <mxPoint x="112" y="105" as="targetPoint" />
          </mxGeometry>
        </mxCell>
        <mxCell id="nR5DASD_eiS3a2mbP523-55" value="" style="endArrow=classic;html=1;rounded=0;exitX=0.5;exitY=1;exitDx=0;exitDy=0;" edge="1" parent="nR5DASD_eiS3a2mbP523-58" target="nR5DASD_eiS3a2mbP523-53" source="nR5DASD_eiS3a2mbP523-50">
          <mxGeometry width="50" height="50" relative="1" as="geometry">
            <mxPoint x="60" y="230" as="sourcePoint" />
            <mxPoint x="112" y="185" as="targetPoint" />
          </mxGeometry>
        </mxCell>
        <mxCell id="nR5DASD_eiS3a2mbP523-79" style="edgeStyle=orthogonalEdgeStyle;rounded=0;orthogonalLoop=1;jettySize=auto;html=1;entryX=0.5;entryY=0;entryDx=0;entryDy=0;" edge="1" parent="WIyWlLk6GJQsqaUBKTNV-1" source="nR5DASD_eiS3a2mbP523-60" target="nR5DASD_eiS3a2mbP523-62">
          <mxGeometry relative="1" as="geometry" />
        </mxCell>
        <mxCell id="nR5DASD_eiS3a2mbP523-60" value="" style="swimlane;startSize=0;fillColor=#e1d5e7;strokeColor=#FF0000;dashed=1;" vertex="1" parent="WIyWlLk6GJQsqaUBKTNV-1">
          <mxGeometry x="820" y="-340" width="440" height="390" as="geometry" />
        </mxCell>
        <mxCell id="nR5DASD_eiS3a2mbP523-61" value="&lt;h1 style=&quot;margin-top: 0px;&quot;&gt;&lt;span style=&quot;background-color: transparent; color: light-dark(rgb(0, 0, 0), rgb(255, 255, 255));&quot;&gt;&lt;font style=&quot;font-size: 49px;&quot;&gt;User&lt;/font&gt;&lt;/span&gt;&lt;/h1&gt;" style="text;html=1;whiteSpace=wrap;overflow=hidden;rounded=0;fillColor=#f5f5f5;fontColor=#333333;strokeColor=#666666;align=center;" vertex="1" parent="WIyWlLk6GJQsqaUBKTNV-1">
          <mxGeometry x="1270" y="-180" width="290" height="70" as="geometry" />
        </mxCell>
        <mxCell id="nR5DASD_eiS3a2mbP523-85" style="edgeStyle=orthogonalEdgeStyle;rounded=0;orthogonalLoop=1;jettySize=auto;html=1;exitX=0.5;exitY=1;exitDx=0;exitDy=0;entryX=1;entryY=0.5;entryDx=0;entryDy=0;" edge="1" parent="WIyWlLk6GJQsqaUBKTNV-1" source="nR5DASD_eiS3a2mbP523-62" target="nR5DASD_eiS3a2mbP523-83">
          <mxGeometry relative="1" as="geometry" />
        </mxCell>
        <mxCell id="nR5DASD_eiS3a2mbP523-62" value="" style="swimlane;startSize=0;fillColor=#e1d5e7;strokeColor=#FF0000;dashed=1;" vertex="1" parent="WIyWlLk6GJQsqaUBKTNV-1">
          <mxGeometry x="810" y="100" width="450" height="220" as="geometry" />
        </mxCell>
        <mxCell id="nR5DASD_eiS3a2mbP523-63" value="&lt;h1 style=&quot;margin-top: 0px;&quot;&gt;&lt;span style=&quot;background-color: transparent; color: light-dark(rgb(0, 0, 0), rgb(255, 255, 255));&quot;&gt;&lt;font style=&quot;font-size: 49px;&quot;&gt;Organizador&lt;/font&gt;&lt;/span&gt;&lt;/h1&gt;" style="text;html=1;whiteSpace=wrap;overflow=hidden;rounded=0;fillColor=#f5f5f5;fontColor=#333333;strokeColor=#666666;" vertex="1" parent="WIyWlLk6GJQsqaUBKTNV-1">
          <mxGeometry x="1270" y="-584" width="300" height="70" as="geometry" />
        </mxCell>
        <mxCell id="nR5DASD_eiS3a2mbP523-66" value="Calcular la cantidad de Rondas" style="rounded=0;whiteSpace=wrap;html=1;fillColor=#fff2cc;strokeColor=#d6b656;" vertex="1" parent="WIyWlLk6GJQsqaUBKTNV-1">
          <mxGeometry x="848" y="120" width="120" height="40" as="geometry" />
        </mxCell>
        <mxCell id="nR5DASD_eiS3a2mbP523-67" value="Se calculan la cantidad de juegos que se haran" style="text;html=1;align=center;verticalAlign=middle;whiteSpace=wrap;rounded=0;fillColor=#f5f5f5;fontColor=#333333;strokeColor=#666666;" vertex="1" parent="WIyWlLk6GJQsqaUBKTNV-1">
          <mxGeometry x="978" y="125" width="260" height="30" as="geometry" />
        </mxCell>
        <mxCell id="nR5DASD_eiS3a2mbP523-68" value="Se calgula el ganador de cada ronda" style="rounded=0;whiteSpace=wrap;html=1;fillColor=#fff2cc;strokeColor=#d6b656;" vertex="1" parent="WIyWlLk6GJQsqaUBKTNV-1">
          <mxGeometry x="848" y="190" width="120" height="40" as="geometry" />
        </mxCell>
        <mxCell id="nR5DASD_eiS3a2mbP523-69" value="Se dara la informacion de jugador que gano y el que perdio y se actualizara su informacion al respecto" style="text;html=1;align=center;verticalAlign=middle;whiteSpace=wrap;rounded=0;fillColor=#f5f5f5;fontColor=#333333;strokeColor=#666666;" vertex="1" parent="WIyWlLk6GJQsqaUBKTNV-1">
          <mxGeometry x="978" y="187.5" width="260" height="45" as="geometry" />
        </mxCell>
        <mxCell id="nR5DASD_eiS3a2mbP523-70" value="" style="endArrow=classic;html=1;rounded=0;movable=1;resizable=1;rotatable=1;deletable=1;editable=1;locked=0;connectable=1;exitX=0.5;exitY=1;exitDx=0;exitDy=0;" edge="1" parent="WIyWlLk6GJQsqaUBKTNV-1" source="nR5DASD_eiS3a2mbP523-66">
          <mxGeometry width="50" height="50" relative="1" as="geometry">
            <mxPoint x="907.98" y="170" as="sourcePoint" />
            <mxPoint x="908" y="190" as="targetPoint" />
          </mxGeometry>
        </mxCell>
        <mxCell id="nR5DASD_eiS3a2mbP523-72" value="Se dice el ganador" style="rounded=0;whiteSpace=wrap;html=1;fillColor=#fff2cc;strokeColor=#d6b656;" vertex="1" parent="WIyWlLk6GJQsqaUBKTNV-1">
          <mxGeometry x="848" y="262.5" width="120" height="40" as="geometry" />
        </mxCell>
        <mxCell id="nR5DASD_eiS3a2mbP523-73" value="Se da la informacion del ganador del torneo" style="text;html=1;align=center;verticalAlign=middle;whiteSpace=wrap;rounded=0;fillColor=#f5f5f5;fontColor=#333333;strokeColor=#666666;" vertex="1" parent="WIyWlLk6GJQsqaUBKTNV-1">
          <mxGeometry x="978" y="260" width="260" height="45" as="geometry" />
        </mxCell>
        <mxCell id="nR5DASD_eiS3a2mbP523-74" value="" style="endArrow=classic;html=1;rounded=0;movable=1;resizable=1;rotatable=1;deletable=1;editable=1;locked=0;connectable=1;exitX=0.5;exitY=1;exitDx=0;exitDy=0;" edge="1" parent="WIyWlLk6GJQsqaUBKTNV-1">
          <mxGeometry width="50" height="50" relative="1" as="geometry">
            <mxPoint x="908" y="232.5" as="sourcePoint" />
            <mxPoint x="908" y="262.5" as="targetPoint" />
          </mxGeometry>
        </mxCell>
        <mxCell id="nR5DASD_eiS3a2mbP523-76" value="" style="swimlane;startSize=0;fillColor=#e1d5e7;strokeColor=#FF0000;dashed=1;" vertex="1" parent="WIyWlLk6GJQsqaUBKTNV-1">
          <mxGeometry x="820" y="-660" width="440" height="240" as="geometry" />
        </mxCell>
        <mxCell id="nR5DASD_eiS3a2mbP523-80" style="edgeStyle=orthogonalEdgeStyle;rounded=0;orthogonalLoop=1;jettySize=auto;html=1;entryX=0.524;entryY=0.002;entryDx=0;entryDy=0;entryPerimeter=0;" edge="1" parent="WIyWlLk6GJQsqaUBKTNV-1" source="nR5DASD_eiS3a2mbP523-76" target="nR5DASD_eiS3a2mbP523-60">
          <mxGeometry relative="1" as="geometry" />
        </mxCell>
        <mxCell id="nR5DASD_eiS3a2mbP523-82" value="&lt;h1 style=&quot;margin-top: 0px;&quot;&gt;&lt;span style=&quot;background-color: transparent; color: light-dark(rgb(0, 0, 0), rgb(255, 255, 255));&quot;&gt;&lt;font style=&quot;font-size: 49px;&quot;&gt;Tournament&lt;/font&gt;&lt;/span&gt;&lt;/h1&gt;" style="text;html=1;whiteSpace=wrap;overflow=hidden;rounded=0;fillColor=#f5f5f5;fontColor=#333333;strokeColor=#666666;" vertex="1" parent="WIyWlLk6GJQsqaUBKTNV-1">
          <mxGeometry x="1270" y="175" width="300" height="70" as="geometry" />
        </mxCell>
        <mxCell id="nR5DASD_eiS3a2mbP523-83" value="FIN" style="ellipse;whiteSpace=wrap;html=1;fillColor=#f8cecc;strokeColor=#b85450;movable=1;resizable=1;rotatable=1;deletable=1;editable=1;locked=0;connectable=1;" vertex="1" parent="WIyWlLk6GJQsqaUBKTNV-1">
          <mxGeometry x="750" y="340" width="76" height="70" as="geometry" />
        </mxCell>
        <mxCell id="nR5DASD_eiS3a2mbP523-87" value="Metodos" style="swimlane;horizontal=0;whiteSpace=wrap;html=1;movable=0;resizable=0;rotatable=0;deletable=0;editable=0;locked=1;connectable=0;" vertex="1" parent="WIyWlLk6GJQsqaUBKTNV-1">
          <mxGeometry x="1580" y="-660" width="500" height="240" as="geometry" />
        </mxCell>
        <mxCell id="nR5DASD_eiS3a2mbP523-89" value="Metodos" style="swimlane;horizontal=0;whiteSpace=wrap;html=1;movable=0;resizable=0;rotatable=0;deletable=0;editable=0;locked=1;connectable=0;" vertex="1" parent="WIyWlLk6GJQsqaUBKTNV-1">
          <mxGeometry x="1580" y="-265" width="500" height="240" as="geometry" />
        </mxCell>
        <mxCell id="nR5DASD_eiS3a2mbP523-90" value="Metodos" style="swimlane;horizontal=0;whiteSpace=wrap;html=1;movable=0;resizable=0;rotatable=0;deletable=0;editable=0;locked=1;connectable=0;" vertex="1" parent="WIyWlLk6GJQsqaUBKTNV-1">
          <mxGeometry x="1580" y="90" width="500" height="240" as="geometry" />
        </mxCell>
        <mxCell id="nR5DASD_eiS3a2mbP523-94" value="&lt;font style=&quot;font-size: 18px; color: rgb(255, 51, 51);&quot;&gt;&lt;b style=&quot;&quot;&gt;OrganizerController&lt;/b&gt;&lt;/font&gt;&lt;div&gt;&lt;font color=&quot;#ff3333&quot;&gt;&lt;span style=&quot;font-size: 18px;&quot;&gt;&lt;b&gt;-------------------------------&lt;br&gt;&lt;/b&gt;&lt;/span&gt;&lt;/font&gt;&lt;div&gt;&lt;font style=&quot;font-size: 16px; color: rgb(0, 0, 0);&quot;&gt;&lt;b style=&quot;&quot;&gt;GetAllJudges();&lt;/b&gt;&lt;/font&gt;&lt;/div&gt;&lt;div&gt;&lt;font style=&quot;font-size: 16px; color: rgb(0, 0, 0);&quot;&gt;&lt;b style=&quot;&quot;&gt;DefineJudges();&lt;/b&gt;&lt;/font&gt;&lt;/div&gt;&lt;div&gt;&lt;font style=&quot;font-size: 16px; color: rgb(0, 0, 0);&quot;&gt;&lt;b style=&quot;&quot;&gt;CreateTournament(); //requiere de un organizador loggeado&lt;/b&gt;&lt;/font&gt;&lt;/div&gt;&lt;div&gt;&lt;br&gt;&lt;/div&gt;&lt;div&gt;&lt;hr&gt;&lt;div&gt;&lt;font style=&quot;font-size: 18px; color: rgb(255, 51, 51);&quot;&gt;&lt;b style=&quot;&quot;&gt;&amp;nbsp;&lt;/b&gt;&lt;/font&gt;&lt;/div&gt;&lt;/div&gt;&lt;/div&gt;" style="text;html=1;align=left;verticalAlign=middle;whiteSpace=wrap;rounded=0;" vertex="1" parent="WIyWlLk6GJQsqaUBKTNV-1">
          <mxGeometry x="1620" y="-640" width="460" height="130" as="geometry" />
        </mxCell>
      </root>
    </mxGraphModel>
  </diagram>
</mxfile>
